<?xml version="1.0" encoding="utf-8"?>
<svg xmlns="http://www.w3.org/2000/svg" height="48" width="48" viewBox="0 0 48 48">
  <g>
    <path id="path1" transform="rotate(0,24,24) translate(11,11.2706749780114) scale(0.811637914917241,0.811637914917241)  " fill="#FFFFFF" d="M13.557831,11.335006C13.226838,11.335006 12.226842,11.335006 11.352836,13.591993 11.237846,13.984999 10.756845,15.134992 8.9858549,15.703001 8.951843,15.714002 8.9158476,15.723005 8.8808439,15.729994 7.637852,15.984999 5.4398606,16.505995 4.8328684,16.816999 4.3648675,17.018003 0.94387313,18.596998 2.3318691,22.693006 3.0768619,24.111996 3.8758705,25.264995 4.7098673,26.119991 5.7088573,27.255993 6.7738559,28.171993 7.9098542,28.878002 11.811834,30.639995 13.630829,26.938 13.706833,26.779995 13.73584,26.717998 13.770828,26.66 13.811827,26.605999 14.153837,26.154995 14.835827,24.188 15.270823,22.624998 15.95182,20.755995 17.113819,20.343992 17.526827,20.253996 18.751814,19.895002 19.488811,19.358 19.719814,18.658003 20.025812,17.727003 19.446819,16.518995 19.062818,15.912992 18.747816,16.033994 18.402817,16.096998 18.048815,16.08 17.341816,16.053999 16.67983,15.731001 16.232826,15.195997 15.81083,14.766996 15.555826,14.081999 15.582834,13.371 15.597832,12.992002 15.693826,12.626005 15.858819,12.298002 15.462824,12.012998 14.477826,11.335006 13.557831,11.335006z M29.641779,1.9999998C29.446787,1.9999996,29.297786,2.0460048,29.140789,2.1580043L17.786821,13.020994C17.612825,13.175001 17.584825,13.352995 17.581819,13.449003 17.575823,13.609007 17.626817,13.764997 17.715822,13.856993 17.883821,14.052992 18.040819,14.078993 18.124817,14.081999 18.276825,14.091993 18.400818,14.040006 18.48381,13.953993L29.716776,3.2070001C29.903787,3.0409997 30.021782,2.7590023 30.033775,2.492996 30.041786,2.3000026 29.991783,2.2019954 29.977775,2.1889949 29.851785,2.0590053 29.715784,1.9999996 29.641779,1.9999998z M29.641779,0C30.274772,-2.0714242E-07 30.918783,0.28900122 31.41077,0.79299908 31.838777,1.2319943 32.058779,1.8610073 32.03177,2.5639952 32.00078,3.3860009 31.640781,4.1770013 31.068777,4.6800073L20.632805,14.665006C21.081808,15.333998 22.256807,17.346006 21.619802,19.283003 21.166815,20.656996 19.963815,21.634001 18.041826,22.186994 18.013323,22.195494 17.984571,22.202493 17.95557,22.20812L17.869886,22.220701 17.862564,22.224586C17.806333,22.254591 17.45907,22.455618 17.173816,23.236997 17.033817,23.751005 16.202827,26.654003 15.471826,27.723003 14.720836,29.230999 12.81383,31.367 9.9508484,31.367 9.0628507,31.367992 8.0828579,31.161999 7.0168517,30.669002 6.9808562,30.652996 6.9458525,30.633999 6.9118564,30.613003 5.5878551,29.798 4.3528588,28.742992 3.2428618,27.477993 2.2948666,26.507992 1.3678677,25.173992 0.52387651,23.550993 0.50187322,23.509001 0.48287606,23.464994 0.46787694,23.419004 -1.2161236,18.598997 2.0398779,15.805998 3.9968572,15.001997 4.9178593,14.525999 7.726856,13.927 8.4218462,13.783003 9.2748401,13.494993 9.4258402,13.055998 9.4328439,13.037 9.4428537,12.981001 9.4468515,12.975996 9.4678476,12.923002 10.37585,10.542006 11.751837,9.3350056 13.557831,9.3350056 15.178828,9.3350056 16.570822,10.343993 17.093815,10.723006L17.20882,10.805999 24.332573,3.9901939 24.294203,3.9477451C23.888199,3.4500151 23.917198,2.7162707 24.381204,2.2531987 24.81621,1.8181897 25.488336,1.7655128 25.980091,2.0951682L26.023355,2.1272376 25.9998,2.0952025C25.674993,1.6033855 25.729128,0.93539923 26.162203,0.5031985 26.657146,0.008255015 27.459055,0.008255015 27.952999,0.5031985L27.419218,1.0369794 27.80278,0.6699981C27.828781,0.64500397 27.855789,0.62199371 27.883789,0.60000568 28.401792,0.20199562 28.993786,-2.0714242E-07 29.641779,0z" />
  </g>
</svg>

