<?xml version="1.0" encoding="utf-8"?>
<svg xmlns="http://www.w3.org/2000/svg" height="48" width="48" viewBox="0 0 48 48">
  <g>
    <path id="path1" transform="rotate(0,24,24) translate(11,11) scale(0.8125,0.8125)  " fill="#FFFFFF" d="M8.6999969,0C12.300003,0 14,1.5999985 16,4.0999985 18,1.5999985 19.699997,0 23.300003,0 23.800003,0 24.199997,0 24.800003,0.099998474 27.899994,0.40000153 31.599991,3.4000015 32,9.1999969L32,11.099998C31.599991,16.599998 27.599991,23.400002 16,32 4.3999939,23.400002 0.3999939,16.599998 0,11.099998L0,9.1999969C0.3999939,3.4000015 4.0999908,0.40000153 7.1999969,0.099998474 7.6999969,0 8.1999969,0 8.6999969,0z" />
  </g>
</svg>

