<?xml version="1.0" encoding="utf-8"?>
<svg xmlns="http://www.w3.org/2000/svg" height="48" width="48" viewBox="0 0 48 48">
  <g>
    <path id="path1" transform="rotate(0,24,24) translate(11.0000100731856,11) scale(0.812500048428777,0.812500048428777)  " fill="#FFFFFF" d="M6,19.999999L13,19.999999C13.553,19.999999 14,20.447999 14,20.999999 14,21.551999 13.553,21.999999 13,21.999999L6,21.999999C5.4469995,21.999999 5,21.551999 5,20.999999 5,20.447999 5.4469995,19.999999 6,19.999999z M29.382987,16.260007L20.94303,16.834006 20.94303,19.005968 29.382987,18.195523z M6,15.999999L15,15.999999C15.553,15.999999 16,16.447999 16,16.999999 16,17.551999 15.553,17.999999 15,17.999999L6,17.999999C5.4469995,17.999999 5,17.551999 5,16.999999 5,16.447999 5.4469995,15.999999 6,15.999999z M31.382977,14.119006L31.382977,24.920064 31.416286,24.950836C31.554545,25.086427 31.673277,25.243478 31.767812,25.421135 32.371838,26.558136 31.756811,28.107138 30.391751,28.882138 29.026691,29.657139 27.43062,29.363139 26.826594,28.227138 26.221567,27.090137 26.837595,25.541135 28.202655,24.766134 28.586297,24.548165 28.988291,24.414677 29.381429,24.360685L29.382987,24.360505 29.382987,20.204946 20.94303,21.015314 20.94303,25.650528 21.014161,25.738231C21.072938,25.816651 21.12625,25.900329 21.173513,25.989158 21.77848,27.126146 21.162528,28.67515 19.79757,29.45014 18.433588,30.22513 16.83658,29.931125 16.232591,28.795144 15.627624,27.658126 16.243576,26.109153 17.608534,25.334163 17.992154,25.116189 18.394129,24.982696 18.78725,24.928702L18.943041,24.912465 18.943041,14.965006z M6,11.999999L18,11.999999C18.553,11.999999 19,12.447999 19,12.999999 19,13.551999 18.553,13.999999 18,13.999999L6,13.999999C5.4469995,13.999999 5,13.551999 5,12.999999 5,12.447999 5.4469995,11.999999 6,11.999999z M17,3.4139996L17,7.0309887 20.616989,7.0309887z M2,0L16.414,0 24,7.5859985 24,12.999999 22,12.999999 22,9.0309877 15,9.0309877 15,2 2,2 2,29.999999 16,29.999999 16,31.999999 2,31.999999C0.89700031,31.999999,0,31.102999,0,29.999999L0,2C0,0.89699936,0.89700031,0,2,0z" />
  </g>
</svg>

