<svg xmlns="http://www.w3.org/2000/svg" width="146" height="81" viewBox="0 0 146 81">
  <g fill="#DA291C">
    <path d="M141.996076,75.2479747 L142.252405,75.2479747 C142.333869,75.2343988 142.417018,75.2343988 142.498481,75.2479747 C142.574833,75.2884274 142.63065,75.3591288 142.652278,75.4427848 C142.693174,75.5518624 142.693174,75.6720617 142.652278,75.7811392 C142.606667,75.8780032 142.520188,75.9494427 142.416456,75.9759494 L142.283165,75.9759494 L142.016582,75.9759494 L141.996076,75.2479747 Z M141.298861,77.636962 L141.298861,77.7087342 L142.057595,77.7087342 L142.057595,77.6267089 C142.05449,77.5789111 142.05449,77.5309623 142.057595,77.4831646 C142.057595,77.1858228 142.057595,76.5501266 142.057595,76.5501266 L142.303671,76.5501266 L142.826582,77.7087342 L143.687848,77.7087342 C143.402873,77.2943145 143.155799,76.855072 142.94962,76.3963291 C143.049101,76.3387761 143.136216,76.2621152 143.205949,76.1707595 C143.329419,76.0012196 143.394216,75.796031 143.390506,75.5863291 C143.396497,75.5146821 143.396497,75.4426597 143.390506,75.3710127 C143.375053,75.2696275 143.340243,75.1721609 143.287975,75.0839241 C143.190097,74.9227506 143.037096,74.8025359 142.857342,74.7455696 L142.631772,74.6943038 L142.354937,74.6943038 L141.32962,74.6943038 C141.337486,74.7383859 141.337486,74.7835128 141.32962,74.8275949 L141.32962,77.5446835 C141.332368,77.5924922 141.332368,77.6404192 141.32962,77.6882278 L141.298861,77.636962 Z"/>
    <path d="M142.313924,73.8125316 C143.316919,73.7958821 144.230452,74.387254 144.625873,75.3091647 C145.021295,76.2310755 144.820129,77.3005581 144.116767,78.0157915 C143.413404,78.731025 142.347438,78.9500607 141.419038,78.5701228 C140.49064,78.1901851 139.884062,77.2866781 139.883924,76.2835443 C139.883924,74.9188417 140.990234,73.8125316 142.354937,73.8125316 M142.354937,79.6670886 C144.223617,79.6670886 145.738481,78.1522242 145.738481,76.2835443 C145.738481,74.4148644 144.223617,72.9 142.354937,72.9 C140.486256,72.9 138.971392,74.4148644 138.971392,76.2835443 C138.971392,78.1522242 140.486256,79.6670886 142.354937,79.6670886"/>
    <path d="M134.572785,74.1918987 L123.714684,59.1197468 C123.714684,59.1197468 133.834557,46.1392405 134.603544,45.0524051 C135.895443,43.2375949 137.08481,41.6893671 138.499747,40.9511392 L127.016203,40.9511392 C127.016203,43.0632911 124.96557,44.9703797 123.940253,46.2520253 L116.301646,55.7362025 L116.301646,43.7810127 C116.251841,42.8121417 116.445725,41.8462439 116.86557,40.9716456 L106.233038,40.9716456 C106.712774,42.0093709 106.910806,43.1551235 106.807215,44.2936709 L106.807215,76.4373418 C106.910321,77.5758696 106.712311,78.7214973 106.233038,79.7593671 L116.86557,79.7593671 C116.446142,78.8846294 116.252279,77.9188386 116.301646,76.95 L116.301646,63.3337975 C116.301646,63.3337975 125.867848,76.1297468 126.841899,77.5959494 C127.360009,78.2003527 127.694428,78.9403433 127.805696,79.7286076 L139.822405,79.7286076 C138.151139,78.7853165 136.592658,76.765443 134.572785,74.1508861 L134.572785,74.1918987 Z M0,0.0102531646 L0,8.34607595 C1.02804201,7.87029206 2.16284894,7.67231951 3.29126582,7.77189873 L10.5402532,7.77189873 L10.5402532,35.6502532 C10.6171749,36.7079201 10.4193845,37.7675119 9.96607595,38.7262025 L20.3217722,38.7262025 C19.8577239,37.7308683 19.6598848,36.6321546 19.7475949,35.5374684 L19.7475949,7.77189873 L26.8632911,7.77189873 C28.0018581,7.66782067 29.1477362,7.86587367 30.1853165,8.34607595 L30.1853165,0.0102531646 L0,0.0102531646 Z M68.1937975,3.42388301e-15 C68.593069,0.815837157 68.7866723,1.71697209 68.7577215,2.62481013 L68.7577215,35.4349367 C68.8531424,36.5642134 68.6516709,37.6988157 68.1732911,38.7262025 L95.2108861,38.7262025 L95.2108861,30.4416456 C94.1892999,30.9148015 93.0617873,31.1127348 91.9401266,31.0158228 L78.0573418,31.0158228 L78.0573418,23.3464557 L87.2134177,23.3464557 C88.2474328,23.2778187 89.2817732,23.4755083 90.2175949,23.9206329 L90.2175949,14.9286076 C89.2580489,15.3792684 88.1991551,15.5769286 87.1416456,15.5027848 L78.1188608,15.5027848 L78.1188608,7.77189873 L91.8888608,7.77189873 C93.0274277,7.66782067 94.1733058,7.86587367 95.2108861,8.34607595 L95.2108861,0 L68.1937975,3.42388301e-15 Z M66.235443,38.7262025 C65.7552408,37.6886223 65.5571878,36.5427442 65.6612658,35.4041772 L65.6612658,3.33227848 C65.557791,2.19041322 65.7557772,1.04138566 66.235443,3.55271368e-15 L55.9105063,5.37404158e-15 C56.356484,0.93919094 56.5541725,1.97705531 56.4846835,3.01443038 L56.4846835,15.5232911 L42.0174684,15.5232911 L42.0174684,3.07594937 C41.9405467,2.0182824 42.1383371,0.958690664 42.5916456,3.55271368e-15 L32.2256962,3.55271368e-15 C32.6984554,1.01807076 32.8964121,2.14218186 32.7998734,3.26050633 L32.7998734,35.4349367 C32.8980142,36.5632921 32.7001058,37.6977313 32.2256962,38.7262025 L42.6224051,38.7262025 C42.1483312,37.7049043 41.9503547,36.5771457 42.0482278,35.455443 C42.0482278,34.4301266 42.0482278,23.2336709 42.0482278,23.2336709 L56.4846835,23.2336709 L56.4846835,35.4349367 C56.579626,36.5641914 56.3781763,37.6986716 55.9002532,38.7262025 L66.235443,38.7262025 Z M51.3888608,40.8691139 C40.6132369,41.1449254 32.0747499,50.0561546 32.2593351,60.8337272 C32.4439204,71.6112998 41.2825515,80.224915 52.0613005,80.1315693 C62.8400495,80.0382235 71.5281755,71.2728238 71.5260759,60.4936709 C71.4585297,55.220792 69.2988816,50.1907604 65.522325,46.5103484 C61.7457683,42.8299362 56.6617283,40.8006912 51.3888608,40.8691139 Z M51.3888608,71.8131646 C45.1401084,71.8131646 40.0744937,66.7475499 40.0744937,60.4987975 C40.0744937,54.2500451 45.1401084,49.1844304 51.3888608,49.1844304 C57.6376131,49.1844304 62.7032278,54.2500451 62.7032278,60.4987975 C62.7032278,66.7475499 57.6376131,71.8131646 51.3888608,71.8131646 Z M95.2826582,72.028481 C88.8555318,72.028481 83.6453165,66.8182656 83.6453165,60.3911392 C83.6453165,53.9640129 88.8555318,48.7537975 95.2826582,48.7537975 C97.8374749,48.6296317 100.375338,49.2303306 102.603418,50.4865823 L104.202911,42.0892405 C101.161504,41.0845315 97.9725963,40.5992628 94.77,40.6537975 C83.1121519,40.6537975 73.6587342,49.4920253 73.6587342,60.3911392 C73.6587342,71.2902532 83.1121519,80.128481 94.77,80.128481 C97.9266744,80.1726597 101.06893,79.6945658 104.06962,78.7135443 L102.787975,69.9675949 C100.565469,71.4273764 97.938984,72.1485834 95.2826582,72.028481 Z"/>
    <path d="M31.4772152,74.7660759 L23.8488608,63.2107595 L23.7668354,62.9749367 C27.3691888,60.699486 29.4927497,56.6826771 29.344557,52.4244304 C29.344557,46.17 24.925443,40.8896203 16.2102532,40.8896203 L0.256329114,40.8896203 C0.73755399,41.9232401 0.935697389,43.066103 0.830506329,44.2013924 L0.830506329,76.4988608 C0.934097239,77.6374081 0.736065927,78.7831607 0.256329114,79.8208861 L10.4274684,79.8208861 C9.94773154,78.7831607 9.74970023,77.6374081 9.85329114,76.4988608 L9.85329114,65.1281013 L14.6107595,65.1281013 L23.2644304,78.2418987 C23.5081919,78.7251817 23.6346468,79.2591026 23.6335443,79.8003797 L35.6194937,79.8003797 C34.6556962,79.0724051 33.5381013,77.6882278 31.4772152,74.7660759 Z M15.9231646,58.3097468 L9.83278481,58.3097468 L9.83278481,48.8050633 L15.9231646,48.8050633 C18.5478104,48.8050633 20.6755063,50.9327592 20.6755063,53.5574051 C20.6755063,56.1820509 18.5478104,58.3097468 15.9231646,58.3097468 Z"/>
  </g>
</svg>
