<svg width="146" height="81" xmlns="http://www.w3.org/2000/svg">

 <g>
  <title>background</title>
  <rect fill="none" id="canvas_background" height="402" width="582" y="-1" x="-1"/>
 </g>
 <g>
  <title>Layer 1</title>
  <g id="svg_1" fill="#DA291C">
   <path id="svg_2" d="m141.99608,75.24797l0.25633,0c0.08146,-0.01357 0.16461,-0.01357 0.24607,0c0.07635,0.04046 0.13217,0.11116 0.1538,0.19481c0.04089,0.10908 0.04089,0.22928 0,0.33836c-0.04561,0.09686 -0.13209,0.1683 -0.23582,0.19481l-0.1333,0l-0.26658,0l-0.0205,-0.72798zm-0.69722,2.38899l0,0.07177l0.75873,0l0,-0.08202c-0.0031,-0.0478 -0.0031,-0.09575 0,-0.14355c0,-0.29734 0,-0.93303 0,-0.93303l0.24608,0l0.52291,1.1586l0.86127,0c-0.28498,-0.41442 -0.53205,-0.85366 -0.73823,-1.3124c0.09948,-0.05755 0.1866,-0.13421 0.25633,-0.22557c0.12347,-0.16954 0.18827,-0.37473 0.18456,-0.58443c0.00599,-0.07165 0.00599,-0.14367 0,-0.21532c-0.01546,-0.10138 -0.05027,-0.19885 -0.10254,-0.28709c-0.09787,-0.16117 -0.25087,-0.28138 -0.43063,-0.33835l-0.22557,-0.05127l-0.27683,0l-1.02532,0c0.00787,0.04409 0.00787,0.08921 0,0.13329l0,2.71709c0.00275,0.04781 0.00275,0.09574 0,0.14355l-0.03076,-0.05127z"/>
   <path id="svg_3" d="m142.31392,73.81253c1.003,-0.01665 1.91653,0.57472 2.31195,1.49663c0.39543,0.92192 0.19426,1.9914 -0.5091,2.70663c-0.70337,0.71524 -1.76933,0.93427 -2.69773,0.55433c-0.9284,-0.37993 -1.53498,-1.28344 -1.53512,-2.28658c0,-1.3647 1.10631,-2.47101 2.47102,-2.47101m0,5.85456c1.86868,0 3.38354,-1.51487 3.38354,-3.38355c0,-1.86868 -1.51486,-3.38354 -3.38354,-3.38354c-1.86868,0 -3.38355,1.51486 -3.38355,3.38354c0,1.86868 1.51487,3.38355 3.38355,3.38355"/>
   <path id="svg_4" d="m134.57279,74.1919l-10.85811,-15.07215c0,0 10.11988,-12.98051 10.88886,-14.06734c1.2919,-1.81482 2.48127,-3.36304 3.89621,-4.10127l-11.48355,0c0,2.11215 -2.05063,4.01924 -3.07595,5.30089l-7.6386,9.48417l0,-11.95519c-0.04981,-0.96887 0.14407,-1.93477 0.56392,-2.80936l-10.63253,0c0.47973,1.03772 0.67777,2.18347 0.57417,3.32202l0,32.14367c0.10311,1.13853 -0.0949,2.28416 -0.57417,3.32203l10.63253,0c-0.41943,-0.87474 -0.61329,-1.84053 -0.56392,-2.80937l0,-13.6162c0,0 9.5662,12.79595 10.54025,14.26215c0.51811,0.6044 0.85253,1.34439 0.9638,2.13266l12.01671,0c-1.67127,-0.94329 -3.22975,-2.96317 -5.24962,-5.57772l0,0.04101zm-134.57279,-74.18165l0,8.33583c1.02804,-0.47579 2.16285,-0.67376 3.29127,-0.57418l7.24898,0l0,27.87835c0.07692,1.05767 -0.12087,2.11726 -0.57417,3.07595l10.35569,0c-0.46405,-0.99533 -0.66189,-2.09405 -0.57418,-3.18873l0,-27.76557l7.1157,0c1.13857,-0.10408 2.28445,0.09397 3.32203,0.57418l0,-8.33583l-30.18532,0zm68.1938,-0.01025c0.39927,0.81584 0.59287,1.71697 0.56392,2.62481l0,32.81013c0.09542,1.12927 -0.10605,2.26388 -0.58443,3.29126l27.0376,0l0,-8.28455c-1.02159,0.47315 -2.1491,0.67108 -3.27076,0.57417l-13.88279,0l0,-7.66936l9.15608,0c1.03401,-0.06864 2.06835,0.12905 3.00417,0.57417l0,-8.99202c-0.95954,0.45066 -2.01843,0.64832 -3.07594,0.57417l-9.02279,0l0,-7.73088l13.77,0c1.13857,-0.10408 2.28445,0.09397 3.32203,0.57418l0,-8.34608l-27.01709,0zm-1.95836,38.7262c-0.4802,-1.03758 -0.67825,-2.18346 -0.57417,-3.32202l0,-32.0719c-0.10348,-1.14187 0.09451,-2.29089 0.57417,-3.33228l-10.32493,0c0.44597,0.93919 0.64366,1.97706 0.57417,3.01443l0,12.50886l-14.46721,0l0,-12.44734c-0.07692,-1.05767 0.12087,-2.11726 0.57418,-3.07595l-10.36595,0c0.47276,1.01807 0.67071,2.14218 0.57417,3.26051l0,32.17443c0.09814,1.12835 -0.09976,2.26279 -0.57417,3.29126l10.39671,0c-0.47408,-1.0213 -0.67206,-2.14905 -0.57418,-3.27076c0,-1.02531 0,-12.22177 0,-12.22177l14.43645,0l0,12.20127c0.09495,1.12925 -0.1065,2.26373 -0.58443,3.29126l10.33519,0zm-14.84658,2.14291c-10.77562,0.27582 -19.31411,9.18704 -19.12952,19.96462c0.18458,10.77757 9.02321,19.39118 19.80196,19.29784c10.77875,-0.09335 19.46688,-8.85875 19.46478,-19.6379c-0.06755,-5.27288 -2.2272,-10.30291 -6.00376,-13.98332c-3.77655,-3.68041 -8.86059,-5.70966 -14.13346,-5.64124zm0,30.94405c-6.24875,0 -11.31437,-5.06561 -11.31437,-11.31436c0,-6.24875 5.06562,-11.31437 11.31437,-11.31437c6.24875,0 11.31437,5.06562 11.31437,11.31437c0,6.24875 -5.06562,11.31436 -11.31437,11.31436zm43.8938,0.21532c-6.42713,0 -11.63734,-5.21021 -11.63734,-11.63734c0,-6.42713 5.21021,-11.63734 11.63734,-11.63734c2.55481,-0.12417 5.09268,0.47653 7.32076,1.73278l1.59949,-8.39734c-3.04141,-1.00471 -6.23031,-1.48998 -9.43291,-1.43544c-11.65785,0 -21.11127,8.83823 -21.11127,19.73734c0,10.89911 9.45342,19.73734 21.11127,19.73734c3.15667,0.04418 6.29893,-0.43391 9.29962,-1.41494l-1.28164,-8.74595c-2.22251,1.45979 -4.849,2.18099 -7.50532,2.06089z"/>
   <path id="svg_5" d="m31.47722,74.76608l-7.62836,-11.55532l-0.08202,-0.23582c3.60235,-2.27545 5.72591,-6.29226 5.57772,-10.55051c0,-6.25443 -4.41912,-11.53481 -13.13431,-11.53481l-15.95392,0c0.48122,1.03362 0.67937,2.17648 0.57418,3.31177l0,32.29747c0.10359,1.13855 -0.09444,2.2843 -0.57418,3.32203l10.17114,0c-0.47974,-1.03773 -0.67777,-2.18348 -0.57418,-3.32203l0,-11.37076l4.75747,0l8.65367,13.1138c0.24376,0.48328 0.37022,1.0172 0.36911,1.55848l11.98595,0c-0.96379,-0.72797 -2.08139,-2.11215 -4.14227,-5.0343zm-15.55406,-16.45633l-6.09038,0l0,-9.50469l6.09038,0c2.62465,0 4.75235,2.1277 4.75235,4.75235c0,2.62464 -2.1277,4.75234 -4.75235,4.75234z"/>
  </g>
  <text style="cursor: move;" stroke="#000" transform="matrix(0.7071377421854662,0,0,0.8667373657226561,8.789794622920784,5.8272304933218555) " font-weight="bold" xml:space="preserve" text-anchor="start" font-family="'League Gothic', sans-serif" font-size="28" id="svg_6" y="23.923152" x="128.776192" stroke-width="0" fill="#ad3c3c">Play</text>
 </g>
</svg>